# xmcd CD database file
#
# Track frame offsets:
#	150
#	15597
#	31440
#	47635
#
# Disc length: 839 seconds
#
# Revision: 1
# Processed by: cddbd v1.5.2PL0 Copyright (c) Steve Scherf et al.
# Submitted via: CDex 1.70beta3
#
DISCID=27034504
DTITLE=Spoon - 西の空へ
DYEAR=2000
DGENRE=Anime
TTITLE0=西の空へ
TTITLE1=さくら坂
TTITLE2=ダンシングオヤジ feat. with キタキタおやじ
TTITLE3=西の空へ (Original Karaoke)
EXTD=YEAR: 2000
EXTT0=
EXTT1=
EXTT2=
EXTT3=
PLAYORDER=
